<?xml version="1.0" encoding="utf-8"?>
<!-- Generator: Adobe Illustrator 27.0.0, SVG Export Plug-In . SVG Version: 6.00 Build 0)  -->
<svg version="1.1" id="Capa_1" xmlns="http://www.w3.org/2000/svg" xmlns:xlink="http://www.w3.org/1999/xlink" x="0px" y="0px"
	 viewBox="0 0 1063.41 250" style="enable-background:new 0 0 1063.41 250;" xml:space="preserve">
<style type="text/css">
	.st0{fill:#FFFFFF;}
</style>
<polygon class="st0" points="250,105 106.4,105 106.4,0 66.4,0 66.4,105 0,105 0,145 142.4,145 142.4,250 182.4,250 182.4,145 
	250,145 "/>
<g>
	<g>
		<path class="st0" d="M414.17,243.54c-28.33,0-49.75-10.5-63.66-31.22C336.9,192.07,330,162.69,330,125s6.9-67.07,20.51-87.32
			c13.91-20.71,35.33-31.22,63.66-31.22c10.56,0,19.87,1.47,27.69,4.37c7.81,2.9,14.62,6.88,20.24,11.82
			c5.55,4.89,10.28,10.46,14.06,16.58c3.66,5.93,6.94,12,9.75,18.04l1.56,3.35l-29.8,13.66l-1.42-3.62c-1.83-4.68-4-9.16-6.43-13.32
			c-2.36-4.02-5.19-7.6-8.41-10.63c-3.15-2.95-6.93-5.33-11.26-7.06c-4.31-1.73-9.69-2.6-15.97-2.6c-16.42,0-28.26,6.01-36.2,18.36
			c-8.16,12.7-12.3,30.01-12.3,51.47v36.27c0,21.45,4.14,38.77,12.3,51.47c7.94,12.35,19.78,18.36,36.2,18.36
			c6.29,0,11.66-0.87,15.97-2.6c4.33-1.73,8.12-4.11,11.26-7.06c3.23-3.03,6.06-6.61,8.41-10.63c2.44-4.16,4.6-8.64,6.43-13.32
			l1.42-3.62l29.76,13.64l-1.49,3.33c-2.81,6.27-6.11,12.42-9.79,18.27c-3.79,6.01-8.51,11.53-14.05,16.39
			c-5.62,4.95-12.43,8.93-20.24,11.82C434.05,242.07,424.73,243.54,414.17,243.54z"/>
		<path class="st0" d="M414.17,10.14c10.18,0,18.98,1.38,26.41,4.14c7.42,2.76,13.79,6.47,19.09,11.14
			c5.3,4.67,9.75,9.92,13.36,15.75c3.6,5.84,6.78,11.72,9.54,17.66l-22.91,10.5c-1.91-4.88-4.14-9.49-6.68-13.84
			c-2.55-4.34-5.57-8.16-9.07-11.45c-3.5-3.29-7.63-5.88-12.41-7.79c-4.77-1.91-10.55-2.86-17.34-2.86
			c-17.61,0-30.7,6.68-39.29,20.05c-8.59,13.36-12.89,31.18-12.89,53.45v36.27c0,22.27,4.3,40.09,12.89,53.45
			c8.59,13.36,21.68,20.05,39.29,20.05c6.78,0,12.57-0.95,17.34-2.86c4.77-1.91,8.91-4.5,12.41-7.79c3.5-3.29,6.52-7.11,9.07-11.45
			c2.55-4.35,4.77-8.96,6.68-13.84l22.91,10.5c-2.76,6.15-5.94,12.09-9.54,17.82c-3.61,5.73-8.06,10.93-13.36,15.59
			c-5.3,4.67-11.67,8.38-19.09,11.14c-7.43,2.75-16.23,4.14-26.41,4.14c-27.15,0-47.36-9.86-60.61-29.59
			c-13.26-19.73-19.89-48.15-19.89-85.27c0-37.12,6.63-65.54,19.89-85.27C366.81,20,387.02,10.14,414.17,10.14"/>
	</g>
	<g>
		<path class="st0" d="M644.94,239.72l-54.09-94.81h-29.51v94.81h-34.08V10.28h84.49c21.52,0,38.25,6.05,49.74,17.99
			c11.45,11.9,17.25,28.6,17.25,49.64c0,18.85-5.01,34.22-14.89,45.67c-8.91,10.32-21.51,16.81-37.5,19.32l57.06,96.81H644.94z
			 M611.12,114.96c10.26,0,18.26-2.52,23.79-7.49c5.5-4.94,8.17-11.9,8.17-21.29V69.64c0-9.38-2.67-16.35-8.17-21.29
			c-5.53-4.97-13.54-7.49-23.79-7.49h-49.78v74.1H611.12z"/>
	</g>
	<g>
		<path class="st0" d="M788.66,243.54c-15.51,0-28.28-2.19-37.93-6.52c-9.89-4.43-17.61-11.19-22.96-20.07
			c-5.23-8.67-8.71-19.53-10.36-32.29c-1.6-12.4-2.42-27.12-2.42-43.74V10.28h34.08v136.99c0,10.67,0.32,20.32,0.94,28.68
			c0.6,8.02,2.2,14.93,4.77,20.54c2.44,5.35,6.14,9.32,11.3,12.14c5.26,2.87,12.86,4.32,22.58,4.32c9.72,0,17.32-1.45,22.58-4.32
			c5.16-2.82,8.86-6.79,11.3-12.14c2.56-5.63,4.17-12.54,4.77-20.54c0.63-8.37,0.94-18.02,0.94-28.68V10.28h34.08v130.63
			c0,16.63-0.81,31.35-2.42,43.74c-1.65,12.74-5.13,23.61-10.36,32.29c-5.36,8.89-13.08,15.64-22.96,20.07
			C816.93,241.34,804.17,243.54,788.66,243.54z"/>
		<path class="st0" d="M858.65,13.96v126.95c0,16.55-0.8,30.97-2.39,43.27c-1.59,12.3-4.88,22.59-9.86,30.86
			c-4.99,8.27-12.09,14.48-21.32,18.61c-9.23,4.14-21.37,6.2-36.43,6.2c-15.06,0-27.2-2.07-36.43-6.2
			c-9.23-4.14-16.34-10.34-21.32-18.61c-4.99-8.27-8.27-18.56-9.86-30.86c-1.59-12.3-2.39-26.73-2.39-43.27V13.96h26.73v133.31
			c0,10.82,0.32,20.47,0.95,28.95c0.64,8.49,2.33,15.75,5.09,21.79c2.75,6.05,7.05,10.66,12.89,13.84
			c5.83,3.18,13.94,4.77,24.34,4.77c10.39,0,18.5-1.59,24.34-4.77c5.83-3.18,10.13-7.8,12.89-13.84c2.75-6.04,4.46-13.31,5.09-21.79
			c0.64-8.48,0.95-18.14,0.95-28.95V13.96H858.65"/>
	</g>
	<g>
		<polygon class="st0" points="895.7,239.72 895.7,211 1017.89,40.86 901.11,40.86 901.11,10.28 1058,10.28 1058,39.01 
			935.51,209.14 1063.41,209.14 1063.41,239.72 		"/>
		<path class="st0" d="M1054.33,13.96v23.86l-126,174.99h131.41v23.23H899.38v-23.86l125.68-174.99H904.79V13.96H1054.33"/>
	</g>
</g>
</svg>
