<?xml version="1.0" encoding="utf-8"?>
<!-- Generator: Adobe Illustrator 27.0.0, SVG Export Plug-In . SVG Version: 6.00 Build 0)  -->
<svg version="1.1" id="Capa_1" xmlns="http://www.w3.org/2000/svg" xmlns:xlink="http://www.w3.org/1999/xlink" x="0px" y="0px"
	 viewBox="0 0 1063.41 250" style="enable-background:new 0 0 1063.41 250;" xml:space="preserve">
<style type="text/css">
	.st0{fill:#66DEC3;}
</style>
<polygon class="st0" points="250,105 106.4,105 106.4,0 66.4,0 66.4,105 0,105 0,145 142.4,145 142.4,250 182.4,250 182.4,145 
	250,145 "/>
<g>
	<path class="st0" d="M377.97,55.4c7.94-12.35,19.78-18.36,36.2-18.36c6.29,0,11.66,0.87,15.97,2.6c4.32,1.73,8.11,4.1,11.26,7.06
		c3.23,3.03,6.06,6.61,8.41,10.63c2.44,4.16,4.6,8.65,6.43,13.32l1.42,3.62l29.8-13.66l-1.56-3.35c-2.81-6.04-6.09-12.11-9.75-18.04
		c-3.78-6.11-8.52-11.69-14.06-16.58c-5.62-4.94-12.43-8.92-20.24-11.82c-7.81-2.9-17.13-4.37-27.69-4.37
		c-28.33,0-49.75,10.5-63.66,31.22C336.9,57.93,330,87.31,330,125s6.9,67.07,20.51,87.32c13.92,20.71,35.33,31.22,63.66,31.22
		c10.56,0,19.88-1.47,27.69-4.37c7.81-2.9,14.62-6.87,20.24-11.82c5.53-4.87,10.26-10.38,14.05-16.39c3.68-5.85,6.98-12,9.79-18.27
		l1.49-3.33l-29.76-13.64l-1.42,3.62c-1.83,4.68-3.99,9.16-6.43,13.32c-2.36,4.03-5.19,7.6-8.41,10.63
		c-3.14,2.95-6.93,5.33-11.26,7.06c-4.31,1.73-9.69,2.6-15.97,2.6c-16.42,0-28.26-6.01-36.2-18.36c-8.16-12.7-12.3-30.01-12.3-51.47
		v-36.27C365.67,85.41,369.81,68.1,377.97,55.4z"/>
	<path class="st0" d="M663.85,123.58c9.88-11.45,14.89-26.82,14.89-45.67c0-21.04-5.8-37.74-17.25-49.64
		C650,16.33,633.27,10.28,611.75,10.28h-84.49v229.44h34.08V144.9h29.51l54.09,94.81h38.48l-57.06-96.81
		C642.35,140.39,654.95,133.91,663.85,123.58z M561.34,114.96v-74.1h49.78c10.25,0,18.26,2.52,23.79,7.49
		c5.5,4.94,8.17,11.91,8.17,21.29v16.55c0,9.39-2.67,16.35-8.17,21.29c-5.53,4.97-13.54,7.49-23.79,7.49H561.34z"/>
	<path class="st0" d="M828.25,147.27c0,10.66-0.32,20.31-0.94,28.68c-0.6,8-2.2,14.92-4.77,20.54c-2.44,5.35-6.14,9.32-11.3,12.14
		c-5.26,2.87-12.86,4.32-22.58,4.32c-9.73,0-17.32-1.45-22.58-4.32c-5.17-2.82-8.86-6.79-11.3-12.14
		c-2.56-5.62-4.17-12.53-4.77-20.54c-0.63-8.36-0.94-18-0.94-28.68V10.28h-34.08v130.63c0,16.63,0.81,31.34,2.42,43.74
		c1.65,12.76,5.13,23.62,10.36,32.29c5.35,8.89,13.08,15.64,22.96,20.07c9.66,4.33,22.42,6.52,37.93,6.52
		c15.51,0,28.27-2.19,37.93-6.52c9.88-4.43,17.6-11.18,22.96-20.07c5.23-8.68,8.71-19.54,10.36-32.29
		c1.6-12.4,2.42-27.11,2.42-43.74V10.28h-34.08V147.27z"/>
	<polygon class="st0" points="935.51,209.14 1058,39.01 1058,10.28 901.11,10.28 901.11,40.86 1017.89,40.86 895.7,211 
		895.7,239.72 1063.41,239.72 1063.41,209.14 	"/>
</g>
</svg>
