<?xml version="1.0" encoding="utf-8"?>
<!-- Generator: Adobe Illustrator 27.0.0, SVG Export Plug-In . SVG Version: 6.00 Build 0)  -->
<svg version="1.1" xmlns="http://www.w3.org/2000/svg" xmlns:xlink="http://www.w3.org/1999/xlink" x="0px" y="0px"
	 viewBox="0 0 35 17.39" style="enable-background:new 0 0 35 17.39;" xml:space="preserve">
<style type="text/css">
	.st0{fill:#85DAC3;}
	.st1{clip-path:url(#SVGID_00000088120739913193715940000001543231332353501328_);}
	.st2{fill:none;stroke:#000000;stroke-width:2;stroke-miterlimit:10;}
	.st3{opacity:0.7;fill:#FFFFFF;}
	.st4{fill:#FFFFFF;}
	.st5{fill:none;stroke:#85DAC3;stroke-width:2;stroke-miterlimit:10;}
	.st6{fill:none;stroke:#FFFFFF;stroke-width:2;stroke-miterlimit:10;}
	.st7{clip-path:url(#SVGID_00000046322002603484461300000014358102645776449423_);}
	.st8{clip-path:url(#SVGID_00000050650195484075529370000011897156694089166762_);}
	.st9{clip-path:url(#SVGID_00000034091262294788122020000014313701614270242747_);}
	.st10{clip-path:url(#SVGID_00000034091262294788122020000014313701614270242747_);fill:#85DAC3;}
	.st11{clip-path:url(#SVGID_00000165199924145022193960000004003589769526143136_);}
	.st12{clip-path:url(#SVGID_00000165199924145022193960000004003589769526143136_);fill:#85DAC3;}
	.st13{clip-path:url(#SVGID_00000065051421192251476150000009213925766194502803_);}
	.st14{clip-path:url(#SVGID_00000065051421192251476150000009213925766194502803_);fill:#85DAC3;}
	.st15{clip-path:url(#SVGID_00000170991360576092861790000008819646800077548174_);}
	.st16{clip-path:url(#SVGID_00000150821591162294570080000004611848548962516379_);}
	.st17{fill:none;}
	.st18{fill:none;stroke:#000000;stroke-miterlimit:10;}
	.st19{clip-path:url(#SVGID_00000095331283974518259670000002532758744294741399_);}
</style>
<g id="Capa_4">
</g>
<g id="DISEÑO">
</g>
<g id="NAV__x2F__FOOT">
	<path class="st4" d="M33.62,7.31H5.04L11,2.42c0.57-0.5,0.63-1.38,0.12-1.95C10.62-0.1,9.74-0.16,9.17,0.35l-8.7,7.31
		C0.46,7.67,0.45,7.68,0.44,7.69C0.4,7.73,0.36,7.77,0.32,7.81C0.3,7.84,0.28,7.87,0.26,7.9C0.22,7.95,0.19,8,0.16,8.06
		C0.15,8.09,0.13,8.11,0.12,8.14C0.09,8.2,0.07,8.27,0.05,8.34C0.04,8.37,0.04,8.39,0.03,8.41C0.01,8.5,0,8.6,0,8.69
		s0.01,0.19,0.03,0.29c0,0.02,0.01,0.04,0.02,0.06c0.02,0.07,0.04,0.14,0.07,0.21C0.13,9.28,0.15,9.3,0.16,9.33
		c0.03,0.06,0.06,0.11,0.09,0.16C0.28,9.52,0.3,9.55,0.32,9.57C0.36,9.62,0.4,9.66,0.44,9.7c0.01,0.01,0.02,0.02,0.03,0.03l8.7,7.31
		c0.26,0.23,0.59,0.34,0.91,0.34c0.38,0,0.76-0.16,1.04-0.47c0.5-0.57,0.45-1.45-0.12-1.95l-5.96-4.89h28.58
		c0.76,0,1.38-0.62,1.38-1.38C35,7.93,34.38,7.31,33.62,7.31z"/>
</g>
<g id="guias">
</g>
</svg>
