<?xml version="1.0" encoding="utf-8"?>
<!-- Generator: Adobe Illustrator 27.0.0, SVG Export Plug-In . SVG Version: 6.00 Build 0)  -->
<svg version="1.1" xmlns="http://www.w3.org/2000/svg" xmlns:xlink="http://www.w3.org/1999/xlink" x="0px" y="0px"
	 viewBox="0 0 84.78 52.69" style="enable-background:new 0 0 84.78 52.69;" xml:space="preserve">
<style type="text/css">
	.st0{fill:#85DAC3;}
	.st1{clip-path:url(#SVGID_00000015354535219477220690000014915467152248322962_);}
	.st2{fill:none;stroke:#000000;stroke-width:2;stroke-miterlimit:10;}
	.st3{opacity:0.7;fill:#FFFFFF;}
	.st4{fill:#FFFFFF;}
	.st5{fill:none;stroke:#85DAC3;stroke-width:2;stroke-miterlimit:10;}
	.st6{fill:none;stroke:#FFFFFF;stroke-width:2;stroke-miterlimit:10;}
	.st7{clip-path:url(#SVGID_00000066512199664945194000000009250473668724434591_);}
	.st8{clip-path:url(#SVGID_00000145022926142384191950000011706377831694551697_);}
	.st9{clip-path:url(#SVGID_00000002346754261723536640000004466497814203846552_);}
	.st10{clip-path:url(#SVGID_00000002346754261723536640000004466497814203846552_);fill:#85DAC3;}
	.st11{clip-path:url(#SVGID_00000165922464599203947300000015088447695958576037_);}
	.st12{clip-path:url(#SVGID_00000165922464599203947300000015088447695958576037_);fill:#85DAC3;}
	.st13{clip-path:url(#SVGID_00000066518112042274756110000012017832163765526192_);}
	.st14{clip-path:url(#SVGID_00000066518112042274756110000012017832163765526192_);fill:#85DAC3;}
	.st15{clip-path:url(#SVGID_00000077285918286338110760000012731656854395465108_);}
	.st16{clip-path:url(#SVGID_00000087410684239691415660000010122460866527767680_);}
	.st17{fill:none;}
	.st18{fill:none;stroke:#000000;stroke-miterlimit:10;}
	.st19{clip-path:url(#SVGID_00000025405582047793508690000012960026235462644616_);}
</style>
<g id="Capa_4">
</g>
<g id="DISEÑO">
</g>
<g id="NAV__x2F__FOOT">
	<g>
		<path class="st4" d="M42.38,10.4c-8.78,0-15.9,7.14-15.9,15.92c0,8.77,7.14,15.9,15.92,15.9c8.78,0,15.9-7.14,15.9-15.92
			C58.3,17.52,51.16,10.39,42.38,10.4z"/>
		<path class="st4" d="M84.75,25.9c-0.02-0.03-0.04-0.06-0.07-0.09c-0.33-0.49-0.66-0.97-1-1.45C76.36,14,66.06,4.93,53.64,1.47
			C41.03-2.03,27.51,0.89,16.92,8.4C10.77,12.76,5.45,18.21,1.1,24.36c-0.34,0.48-0.68,0.96-1,1.45c-0.03,0.04-0.05,0.07-0.07,0.09
			C0,25.94-0.01,25.98,0.01,26.02c0.01,0.03,0.04,0.07,0.09,0.12c4.26,5.91,8.63,11.56,14.37,16.11
			c10.26,8.13,23.94,12.54,36.93,9.44c14.01-3.35,24.17-13.05,32.42-24.35c0.28-0.38,0.54-0.87,0.87-1.2
			c0.05-0.05,0.08-0.09,0.09-0.12C84.79,25.98,84.78,25.94,84.75,25.9z M77.81,26.87c-3.26,4.72-7.13,8.99-11.74,12.42
			c-6.84,5.08-15.19,8.06-23.65,8.16c-0.01,0-0.02,0-0.02,0c-0.01,0-0.02,0-0.02,0c-8.46-0.1-16.82-3.08-23.65-8.16
			c-4.62-3.43-8.48-7.7-11.74-12.42C6.66,26.42,6.72,26.12,7,25.7c6.76-9.98,17.18-17.76,29.21-19.81
			C49.93,3.55,63.3,9.28,72.64,19.25c1.88,2.01,3.6,4.17,5.14,6.45C78.06,26.12,78.12,26.42,77.81,26.87z"/>
	</g>
</g>
<g id="guias">
</g>
</svg>
